<svg id="Layer_1" data-name="Layer 1" xmlns="http://www.w3.org/2000/svg" viewBox="0 0 144 144"><defs><style>.cls-1{fill:#fff;}.cls-2{fill:#bd081c;}</style></defs><title>pinterest</title><path class="cls-1" d="M144,72A72,72,0,1,1,72,0a72,72,0,0,1,72,72"/><path class="cls-2" d="M71.91,5.43A66.57,66.57,0,0,0,47.65,134c-.58-5.27-1.11-13.35.23-19.1,1.21-5.2,7.81-33.09,7.81-33.09a24,24,0,0,1-2-9.88c0-9.26,5.37-16.17,12-16.17,5.68,0,8.42,4.26,8.42,9.38,0,5.71-3.64,14.25-5.51,22.17-1.57,6.63,3.32,12,9.86,12,11.83,0,20.93-12.48,20.93-30.49C99.44,52.9,88,41.76,71.63,41.76,52.69,41.76,41.57,56,41.57,70.65c0,5.72,2.2,11.86,5,15.19A2,2,0,0,1,47,87.75c-.51,2.1-1.63,6.62-1.85,7.55-.29,1.22-1,1.48-2.23.89C34.6,92.32,29.4,80.16,29.4,70.4c0-21,15.26-40.29,44-40.29,23.09,0,41,16.46,41,38.45C114.43,91.51,100,110,79.88,110c-6.75,0-13.09-3.5-15.26-7.64,0,0-3.34,12.71-4.15,15.83-1.5,5.78-5.56,13-8.27,17.45A66.58,66.58,0,1,0,71.91,5.43Z"/></svg>